<mxfile host="app.diagrams.net" agent="Mozilla/5.0 (Windows NT 10.0; Win64; x64) AppleWebKit/537.36 (KHTML, like Gecko) Chrome/135.0.0.0 Safari/537.36 Edg/135.0.0.0" version="26.2.9">
  <diagram name="PÃ¡gina-1" id="wJZFm8guJSuoL62hME3D">
    <mxGraphModel dx="878" dy="355" grid="1" gridSize="10" guides="1" tooltips="1" connect="1" arrows="1" fold="1" page="1" pageScale="1" pageWidth="827" pageHeight="1169" math="0" shadow="0">
      <root>
        <mxCell id="0" />
        <mxCell id="1" parent="0" />
        <mxCell id="jtOI1FqpiDAt646mjURX-3" value="Exemplo de MER" style="text;html=1;align=center;verticalAlign=middle;resizable=0;points=[];autosize=1;strokeColor=none;fillColor=none;" vertex="1" parent="1">
          <mxGeometry x="150" y="58" width="120" height="30" as="geometry" />
        </mxCell>
        <mxCell id="jtOI1FqpiDAt646mjURX-4" value="Aluno" style="swimlane;fontStyle=0;childLayout=stackLayout;horizontal=1;startSize=30;horizontalStack=0;resizeParent=1;resizeParentMax=0;resizeLast=0;collapsible=1;marginBottom=0;whiteSpace=wrap;html=1;" vertex="1" parent="1">
          <mxGeometry x="140" y="100" width="140" height="150" as="geometry" />
        </mxCell>
        <mxCell id="jtOI1FqpiDAt646mjURX-5" value="Nome" style="text;strokeColor=none;fillColor=none;align=left;verticalAlign=middle;spacingLeft=4;spacingRight=4;overflow=hidden;points=[[0,0.5],[1,0.5]];portConstraint=eastwest;rotatable=0;whiteSpace=wrap;html=1;" vertex="1" parent="jtOI1FqpiDAt646mjURX-4">
          <mxGeometry y="30" width="140" height="30" as="geometry" />
        </mxCell>
        <mxCell id="jtOI1FqpiDAt646mjURX-6" value="Matricula" style="text;strokeColor=none;fillColor=none;align=left;verticalAlign=middle;spacingLeft=4;spacingRight=4;overflow=hidden;points=[[0,0.5],[1,0.5]];portConstraint=eastwest;rotatable=0;whiteSpace=wrap;html=1;" vertex="1" parent="jtOI1FqpiDAt646mjURX-4">
          <mxGeometry y="60" width="140" height="30" as="geometry" />
        </mxCell>
        <mxCell id="jtOI1FqpiDAt646mjURX-7" value="Telefone" style="text;strokeColor=none;fillColor=none;align=left;verticalAlign=middle;spacingLeft=4;spacingRight=4;overflow=hidden;points=[[0,0.5],[1,0.5]];portConstraint=eastwest;rotatable=0;whiteSpace=wrap;html=1;" vertex="1" parent="jtOI1FqpiDAt646mjURX-4">
          <mxGeometry y="90" width="140" height="30" as="geometry" />
        </mxCell>
        <mxCell id="jtOI1FqpiDAt646mjURX-8" value="Chave Primaria" style="text;strokeColor=none;fillColor=none;align=left;verticalAlign=middle;spacingLeft=4;spacingRight=4;overflow=hidden;points=[[0,0.5],[1,0.5]];portConstraint=eastwest;rotatable=0;whiteSpace=wrap;html=1;" vertex="1" parent="jtOI1FqpiDAt646mjURX-4">
          <mxGeometry y="120" width="140" height="30" as="geometry" />
        </mxCell>
        <mxCell id="jtOI1FqpiDAt646mjURX-9" value="Exemplo DER" style="text;html=1;align=center;verticalAlign=middle;resizable=0;points=[];autosize=1;strokeColor=none;fillColor=none;" vertex="1" parent="1">
          <mxGeometry x="370" y="58" width="100" height="30" as="geometry" />
        </mxCell>
        <mxCell id="jtOI1FqpiDAt646mjURX-10" value="Aluno" style="rounded=0;whiteSpace=wrap;html=1;" vertex="1" parent="1">
          <mxGeometry x="360" y="100" width="120" height="60" as="geometry" />
        </mxCell>
        <mxCell id="jtOI1FqpiDAt646mjURX-11" value="Estudou" style="rhombus;whiteSpace=wrap;html=1;" vertex="1" parent="1">
          <mxGeometry x="540" y="90" width="80" height="80" as="geometry" />
        </mxCell>
        <mxCell id="jtOI1FqpiDAt646mjURX-12" value="Turma" style="rounded=0;whiteSpace=wrap;html=1;" vertex="1" parent="1">
          <mxGeometry x="670" y="100" width="120" height="60" as="geometry" />
        </mxCell>
        <mxCell id="jtOI1FqpiDAt646mjURX-14" value="" style="endArrow=none;html=1;rounded=0;entryX=1;entryY=0.5;entryDx=0;entryDy=0;exitX=0;exitY=0.5;exitDx=0;exitDy=0;" edge="1" parent="1" source="jtOI1FqpiDAt646mjURX-11" target="jtOI1FqpiDAt646mjURX-10">
          <mxGeometry width="50" height="50" relative="1" as="geometry">
            <mxPoint x="490" y="190" as="sourcePoint" />
            <mxPoint x="540" y="140" as="targetPoint" />
          </mxGeometry>
        </mxCell>
        <mxCell id="jtOI1FqpiDAt646mjURX-15" value="" style="endArrow=none;html=1;rounded=0;entryX=1;entryY=0.5;entryDx=0;entryDy=0;exitX=0;exitY=0.5;exitDx=0;exitDy=0;" edge="1" parent="1" source="jtOI1FqpiDAt646mjURX-12" target="jtOI1FqpiDAt646mjURX-11">
          <mxGeometry width="50" height="50" relative="1" as="geometry">
            <mxPoint x="620" y="240" as="sourcePoint" />
            <mxPoint x="670" y="190" as="targetPoint" />
          </mxGeometry>
        </mxCell>
        <mxCell id="jtOI1FqpiDAt646mjURX-37" value="Database Empresa DER" style="swimlane;whiteSpace=wrap;html=1;" vertex="1" parent="1">
          <mxGeometry x="140" y="290" width="790" height="220" as="geometry" />
        </mxCell>
        <mxCell id="jtOI1FqpiDAt646mjURX-39" value="Empresa" style="rounded=0;whiteSpace=wrap;html=1;" vertex="1" parent="jtOI1FqpiDAt646mjURX-37">
          <mxGeometry x="25" y="50" width="120" height="60" as="geometry" />
        </mxCell>
        <mxCell id="jtOI1FqpiDAt646mjURX-40" value="Solicita" style="rhombus;whiteSpace=wrap;html=1;" vertex="1" parent="jtOI1FqpiDAt646mjURX-37">
          <mxGeometry x="180" y="35" width="100" height="90" as="geometry" />
        </mxCell>
        <mxCell id="jtOI1FqpiDAt646mjURX-41" value="Projeto" style="rounded=0;whiteSpace=wrap;html=1;" vertex="1" parent="jtOI1FqpiDAt646mjURX-37">
          <mxGeometry x="330" y="50" width="120" height="60" as="geometry" />
        </mxCell>
        <mxCell id="jtOI1FqpiDAt646mjURX-42" value="&lt;div&gt;&lt;br&gt;&lt;/div&gt;&lt;ul&gt;&lt;li style=&quot;&quot;&gt;NumeroDoProjeto&lt;/li&gt;&lt;li style=&quot;&quot;&gt;DataInicio&lt;/li&gt;&lt;li style=&quot;&quot;&gt;DataTermino&lt;/li&gt;&lt;li style=&quot;&quot;&gt;ValorDoProjeto&lt;/li&gt;&lt;/ul&gt;" style="text;html=1;align=left;verticalAlign=middle;resizable=0;points=[];autosize=1;strokeColor=none;fillColor=none;" vertex="1" parent="jtOI1FqpiDAt646mjURX-37">
          <mxGeometry x="300" y="80" width="160" height="110" as="geometry" />
        </mxCell>
        <mxCell id="jtOI1FqpiDAt646mjURX-43" value="&lt;ul&gt;&lt;li&gt;Codigo&lt;/li&gt;&lt;li&gt;Nome&lt;/li&gt;&lt;li&gt;EnderecoEmpresa&lt;/li&gt;&lt;/ul&gt;" style="text;html=1;align=left;verticalAlign=middle;resizable=0;points=[];autosize=1;strokeColor=none;fillColor=none;" vertex="1" parent="jtOI1FqpiDAt646mjURX-37">
          <mxGeometry y="95" width="160" height="80" as="geometry" />
        </mxCell>
        <mxCell id="jtOI1FqpiDAt646mjURX-44" value="" style="endArrow=none;html=1;rounded=0;entryX=1;entryY=0.5;entryDx=0;entryDy=0;exitX=0;exitY=0.5;exitDx=0;exitDy=0;" edge="1" parent="jtOI1FqpiDAt646mjURX-37" source="jtOI1FqpiDAt646mjURX-40" target="jtOI1FqpiDAt646mjURX-39">
          <mxGeometry width="50" height="50" relative="1" as="geometry">
            <mxPoint x="150" y="170" as="sourcePoint" />
            <mxPoint x="200" y="120" as="targetPoint" />
          </mxGeometry>
        </mxCell>
        <mxCell id="jtOI1FqpiDAt646mjURX-45" value="" style="endArrow=none;html=1;rounded=0;entryX=1;entryY=0.5;entryDx=0;entryDy=0;exitX=0;exitY=0.5;exitDx=0;exitDy=0;" edge="1" parent="jtOI1FqpiDAt646mjURX-37" source="jtOI1FqpiDAt646mjURX-41" target="jtOI1FqpiDAt646mjURX-40">
          <mxGeometry width="50" height="50" relative="1" as="geometry">
            <mxPoint x="190" y="190" as="sourcePoint" />
            <mxPoint x="240" y="140" as="targetPoint" />
          </mxGeometry>
        </mxCell>
        <mxCell id="jtOI1FqpiDAt646mjURX-46" value="Possui" style="rhombus;whiteSpace=wrap;html=1;" vertex="1" parent="jtOI1FqpiDAt646mjURX-37">
          <mxGeometry x="500" y="40" width="80" height="80" as="geometry" />
        </mxCell>
        <mxCell id="jtOI1FqpiDAt646mjURX-47" value="" style="endArrow=none;html=1;rounded=0;entryX=1;entryY=0.5;entryDx=0;entryDy=0;exitX=0;exitY=0.5;exitDx=0;exitDy=0;" edge="1" parent="jtOI1FqpiDAt646mjURX-37" source="jtOI1FqpiDAt646mjURX-46" target="jtOI1FqpiDAt646mjURX-41">
          <mxGeometry width="50" height="50" relative="1" as="geometry">
            <mxPoint x="500" y="210" as="sourcePoint" />
            <mxPoint x="550" y="160" as="targetPoint" />
          </mxGeometry>
        </mxCell>
        <mxCell id="jtOI1FqpiDAt646mjURX-48" value="Consultor" style="rounded=0;whiteSpace=wrap;html=1;" vertex="1" parent="jtOI1FqpiDAt646mjURX-37">
          <mxGeometry x="630" y="50" width="120" height="60" as="geometry" />
        </mxCell>
        <mxCell id="jtOI1FqpiDAt646mjURX-49" value="&lt;ul&gt;&lt;li&gt;Nome&lt;/li&gt;&lt;li&gt;Numero&lt;/li&gt;&lt;li&gt;NumeroDeIdentidade&lt;/li&gt;&lt;li&gt;Especializacao&lt;/li&gt;&lt;li&gt;HorasTrabalhadas&lt;/li&gt;&lt;li&gt;Funcao&lt;/li&gt;&lt;/ul&gt;" style="text;html=1;align=left;verticalAlign=middle;resizable=0;points=[];autosize=1;strokeColor=none;fillColor=none;" vertex="1" parent="jtOI1FqpiDAt646mjURX-37">
          <mxGeometry x="600" y="100" width="180" height="120" as="geometry" />
        </mxCell>
        <mxCell id="jtOI1FqpiDAt646mjURX-50" value="" style="endArrow=none;html=1;rounded=0;entryX=1;entryY=0.5;entryDx=0;entryDy=0;exitX=0;exitY=0.5;exitDx=0;exitDy=0;" edge="1" parent="jtOI1FqpiDAt646mjURX-37" source="jtOI1FqpiDAt646mjURX-48" target="jtOI1FqpiDAt646mjURX-46">
          <mxGeometry width="50" height="50" relative="1" as="geometry">
            <mxPoint x="500" y="160" as="sourcePoint" />
            <mxPoint x="550" y="110" as="targetPoint" />
          </mxGeometry>
        </mxCell>
        <mxCell id="jtOI1FqpiDAt646mjURX-51" value="1" style="text;html=1;align=center;verticalAlign=middle;resizable=0;points=[];autosize=1;strokeColor=none;fillColor=none;" vertex="1" parent="jtOI1FqpiDAt646mjURX-37">
          <mxGeometry x="140" y="50" width="30" height="30" as="geometry" />
        </mxCell>
        <mxCell id="jtOI1FqpiDAt646mjURX-52" value="1,n" style="text;html=1;align=center;verticalAlign=middle;resizable=0;points=[];autosize=1;strokeColor=none;fillColor=none;" vertex="1" parent="jtOI1FqpiDAt646mjURX-37">
          <mxGeometry x="290" y="50" width="40" height="30" as="geometry" />
        </mxCell>
        <mxCell id="jtOI1FqpiDAt646mjURX-53" value="1,n" style="text;html=1;align=center;verticalAlign=middle;resizable=0;points=[];autosize=1;strokeColor=none;fillColor=none;" vertex="1" parent="jtOI1FqpiDAt646mjURX-37">
          <mxGeometry x="450" y="50" width="40" height="30" as="geometry" />
        </mxCell>
        <mxCell id="jtOI1FqpiDAt646mjURX-54" value="1,n" style="text;html=1;align=center;verticalAlign=middle;resizable=0;points=[];autosize=1;strokeColor=none;fillColor=none;" vertex="1" parent="jtOI1FqpiDAt646mjURX-37">
          <mxGeometry x="595" y="50" width="40" height="30" as="geometry" />
        </mxCell>
      </root>
    </mxGraphModel>
  </diagram>
</mxfile>
